<?xml version="1.0" encoding="utf-8"?>
<!-- Generator: Adobe Illustrator 19.2.0, SVG Export Plug-In . SVG Version: 6.00 Build 0)  -->
<svg version="1.0" id="Layer_1" xmlns="http://www.w3.org/2000/svg" xmlns:xlink="http://www.w3.org/1999/xlink" x="0px" y="0px"
	 width="384px" height="640px" viewBox="0 0 384 640" enable-background="new 0 0 384 640" xml:space="preserve">
<g id="Welcome">
	<rect id="base" fill="none" width="384" height="640"/>
	<g id="StatusBar_1_">
		<rect fill="#303F9F" width="384" height="21"/>
	</g>
	<g id="ActionBar_1_">
		<rect id="container_3_" y="21" fill="#3F51B5" width="384" height="49"/>
		<text transform="matrix(1 0 0 1 16 52.272)" fill="#FFFFFF" font-family="'Roboto-Medium'" font-size="24px">Katalyst</text>
	</g>
	<g id="Layout">
		<rect id="container_2_" y="70" fill="#FFFFFF" width="384" height="570"/>
		<text transform="matrix(1 0 0 1 15.4998 100.6665)" fill="#757575" font-family="'Roboto-Regular'" font-size="16px">Hello Catalyst</text>
	</g>
</g>
<g id="Form">
	<rect id="base_1_" x="434.5" fill="#FFFFFF" width="384" height="640"/>
	<g id="StatusBar">
		<rect x="434.5" fill="#303F9F" width="384" height="21"/>
	</g>
	<g id="ActionBar">
		<rect id="container_1_" x="434.5" y="21" fill="#3F51B5" width="384" height="49"/>
		<text transform="matrix(1 0 0 1 450.4581 52.272)" fill="#FFFFFF" font-family="'Roboto-Medium'" font-size="24px">Form</text>
	</g>
	<g id="layout">
		<rect id="container_5_" x="434.5" y="70" fill="#FFFFFF" width="384" height="570"/>
		<g id="InputField">
			<rect x="450.2" y="99.3" fill="#FFFFFF" width="353.3" height="27"/>
			<text transform="matrix(1 0 0 1 450.7913 120.8333)" fill="#757575" font-family="'Roboto-Regular'" font-size="16px">Name</text>
			<line fill="none" stroke="#FF4081" stroke-miterlimit="10" x1="450.2" y1="126.3" x2="803.5" y2="126.3"/>
		</g>
		<text transform="matrix(1 0 0 1 450.7914 91.6665)" fill="#757575" font-family="'Roboto-Regular'" font-size="12px">Your Name</text>
		<g id="Button">
			<rect x="709.4" y="160" fill="#D6D7D7" width="94" height="32"/>
			<text transform="matrix(1 0 0 1 733.0348 179.5034)" font-family="'Roboto-Medium'" font-size="12px">BUTTON</text>
		</g>
	</g>
</g>
<g id="Final">
	<rect id="base_2_" x="0" y="660" fill="#FFFFFF" width="384" height="586"/>
	<g id="StatusBar_2_">
		<rect x="0" y="660" fill="#303F9F" width="384" height="21"/>
	</g>
	<g id="ActionBar_2_">
		<rect id="container_4_" x="0" y="681" fill="#3F51B5" width="384" height="49"/>
		<text transform="matrix(1 0 0 1 16 712.272)" fill="#FFFFFF" font-family="'Roboto-Medium'" font-size="24px">Thank You</text>
	</g>
	<g id="Image">
		<rect id="container" x="-0.5" y="729.7" fill="none" width="384" height="119"/>
		<g id="asset-Image_1_">
			<rect id="asset-container" x="147.5" y="745.2" fill="none" width="88" height="88"/>
			<g id="asset">
				<g>
					<path fill="#91DC5A" d="M170.5,779.2h-0.1c-1.9,0-3.4,1.5-3.4,3.4v14.9c0,1.9,1.5,3.4,3.4,3.4h0.1c1.9,0,3.4-1.5,3.4-3.4v-14.9
						C174,780.7,172.4,779.2,170.5,779.2z"/>
					<path fill="#91DC5A" d="M175.6,803.3c0,1.7,1.4,3.1,3.2,3.1h3.4v8.1c0,1.9,1.5,3.4,3.4,3.4h0.1c1.9,0,3.4-1.5,3.4-3.4v-8.1h4.7
						v8.1c0,1.9,1.6,3.4,3.4,3.4h0.1c1.9,0,3.4-1.5,3.4-3.4v-8.1h3.4c1.7,0,3.1-1.4,3.1-3.1v-23.6h-31.8v23.6H175.6z"/>
					<path fill="#91DC5A" d="M199.4,765.4l2.7-4.1c0.2-0.3,0.1-0.6-0.2-0.8s-0.6-0.1-0.8,0.2l-2.8,4.3c-2.1-0.9-4.4-1.3-6.9-1.3
						s-4.8,0.5-6.9,1.3l-2.8-4.3c-0.2-0.3-0.5-0.3-0.8-0.2c-0.3,0.2-0.3,0.5-0.2,0.8l2.7,4.1c-4.8,2.4-8.1,6.8-8.1,11.9
						c0,0.3,0,0.6,0,0.9h32.2c0-0.3,0-0.6,0-0.9C207.5,772.2,204.1,767.8,199.4,765.4z M184.1,772.8c-0.8,0-1.5-0.7-1.5-1.5
						c0-0.8,0.7-1.5,1.5-1.5c0.9,0,1.5,0.7,1.5,1.5C185.6,772.1,185,772.8,184.1,772.8z M198.9,772.8c-0.8,0-1.5-0.7-1.5-1.5
						c0-0.8,0.7-1.5,1.5-1.5c0.9,0,1.5,0.7,1.5,1.5C200.4,772.1,199.6,772.8,198.9,772.8z"/>
					<path fill="#91DC5A" d="M212.6,779.2h-0.1c-1.9,0-3.4,1.5-3.4,3.4v14.9c0,1.9,1.5,3.4,3.4,3.4h0.1c1.9,0,3.4-1.5,3.4-3.4v-14.9
						C216,780.7,214.5,779.2,212.6,779.2z"/>
				</g>
				<circle id="Back_1_" fill="none" stroke="#91DC5A" stroke-miterlimit="10" cx="191.5" cy="789.2" r="40.3"/>
			</g>
		</g>
	</g>
	<g id="TextView">
		<rect x="63" y="863.8" fill="none" width="256" height="20.3"/>
		<text transform="matrix(1 0 0 1 102.7925 874.3413)" fill="#757575" font-family="'Roboto-Regular'" font-size="14px">Accelerating Android Design</text>
	</g>
</g>
</svg>
