<?xml version="1.0" encoding="utf-8"?>
<!-- Generator: Adobe Illustrator 19.2.0, SVG Export Plug-In . SVG Version: 6.00 Build 0)  -->
<svg version="1.0" id="Layer_1" xmlns="http://www.w3.org/2000/svg" xmlns:xlink="http://www.w3.org/1999/xlink" x="0px" y="0px"
	 width="740px" height="372px" viewBox="0 0 740 372" enable-background="new 0 0 740 372" xml:space="preserve">
<g>
	<path fill="#922CCE" d="M262.7,215.8l-6.8,7.4v11.9c0,3.5-2.8,6.3-6.3,6.3H249c-3.5,0-6.3-2.8-6.3-6.3v-51.2c0-3.5,2.8-6.3,6.3-6.3
		h0.6c3.5,0,6.3,2.8,6.3,6.3v22.6l5.8-7.9L276,180c1.2-1.5,3-2.4,5-2.4h0c5.3,0,8.2,6.1,4.9,10.2l-14.5,18.1l16.9,25.7
		c2.8,4.2-0.2,9.7-5.3,9.7h-0.5c-2.1,0-4.1-1.1-5.3-2.9L262.7,215.8z"/>
	<path fill="#922CCE" d="M335.6,228.2h-23l-2.9,8.7c-0.9,2.6-3.4,4.4-6.1,4.4h0c-4.5,0-7.6-4.5-6.1-8.7l18.4-49.3
		c1.3-3.4,4.6-5.7,8.2-5.7l0,0c3.7,0,6.9,2.3,8.2,5.7l18.5,49.3c1.6,4.2-1.5,8.7-6.1,8.7l0,0c-2.8,0-5.2-1.8-6.1-4.4L335.6,228.2z
		 M316.2,217.6h15.9l-8-23.9L316.2,217.6z"/>
	<path fill="#922CCE" d="M397.4,188.2h-14.2V236c0,2.9-2.4,5.3-5.3,5.3h-2.5c-2.9,0-5.3-2.4-5.3-5.3v-47.8h-13.9
		c-2.9,0-5.3-2.4-5.3-5.3v0c0-2.9,2.4-5.3,5.3-5.3h41.3c2.9,0,5.3,2.4,5.3,5.3v0C402.7,185.9,400.4,188.2,397.4,188.2z"/>
	<path fill="#922CCE" d="M441,228.2h-23l-2.9,8.7c-0.9,2.6-3.4,4.4-6.1,4.4h0c-4.5,0-7.6-4.5-6.1-8.7l18.4-49.3
		c1.3-3.4,4.6-5.7,8.2-5.7l0,0c3.7,0,6.9,2.3,8.2,5.7l18.5,49.3c1.6,4.2-1.5,8.7-6.1,8.7h0c-2.8,0-5.2-1.8-6.1-4.4L441,228.2z
		 M421.5,217.6h15.9l-8-23.9L421.5,217.6z"/>
	<path fill="#922CCE" d="M478.5,230.8h22.6c2.9,0,5.3,2.4,5.3,5.3l0,0c0,2.9-2.4,5.3-5.3,5.3H473c-4.2,0-7.6-3.4-7.6-7.6v-50.8
		c0-2.9,2.4-5.3,5.3-5.3h2.6c2.9,0,5.3,2.4,5.3,5.3V230.8z"/>
	<path fill="#922CCE" d="M523.7,206.3l11.6-25.1c1-2.2,3.3-3.7,5.7-3.7l0,0c4.7,0,7.8,5,5.6,9.2l-16.2,31.5v16.4
		c0,3.7-3,6.7-6.7,6.7h0c-3.7,0-6.7-3-6.7-6.7v-16.4l-16.2-31.5c-2.2-4.2,0.9-9.2,5.6-9.2h0c2.5,0,4.7,1.4,5.7,3.7L523.7,206.3z"/>
	<path fill="#922CCE" d="M589.5,224.6c0-1.1-0.2-2.1-0.5-3c-0.3-0.9-0.9-1.7-1.9-2.5c-0.9-0.8-2.2-1.5-3.8-2.2
		c-1.6-0.7-3.7-1.5-6.3-2.3c-2.9-0.9-5.7-2-8.3-3.2c-2.6-1.2-4.8-2.5-6.8-4.1c-1.9-1.6-3.5-3.4-4.6-5.5c-1.1-2.1-1.7-4.5-1.7-7.3
		c0-2.7,0.6-5.1,1.7-7.3c1.2-2.2,2.8-4.1,4.9-5.6c2.1-1.5,4.6-2.8,7.4-3.6c2.9-0.9,6-1.3,9.5-1.3c3.5,0,6.7,0.5,9.6,1.5
		c2.9,1,5.4,2.3,7.4,4.1c2,1.8,3.6,3.8,4.7,6.2c0.1,0.3,0.2,0.5,0.3,0.8c1.4,3.4-1.1,7.1-4.8,7.1h-2.7c-2.3,0-4.2-1.5-5-3.7
		c0,0,0,0,0,0c-0.4-1.1-1.1-2.1-1.9-2.9c-0.9-0.8-2-1.5-3.3-1.9c-1.3-0.5-2.9-0.7-4.6-0.7c-1.7,0-3.2,0.2-4.5,0.6
		c-1.3,0.4-2.3,0.9-3.2,1.6c-0.8,0.7-1.5,1.5-1.9,2.4c-0.4,0.9-0.6,1.9-0.6,2.9c0,2.1,1.1,3.9,3.2,5.3c2.1,1.4,5.3,2.7,9.4,4
		c3.5,1.1,6.5,2.3,9.2,3.6c2.6,1.3,4.8,2.8,6.6,4.5c1.8,1.7,3.1,3.5,4,5.6c0.9,2.1,1.4,4.4,1.4,7.1c0,2.8-0.5,5.3-1.6,7.5
		c-1.1,2.2-2.6,4-4.7,5.5c-2,1.5-4.4,2.7-7.3,3.5c-2.8,0.8-6,1.2-9.5,1.2c-2.1,0-4.2-0.2-6.3-0.5c-2.1-0.4-4.1-0.9-6-1.7
		c-1.9-0.8-3.7-1.7-5.3-2.8c-1.6-1.1-3.1-2.5-4.3-4c-1.2-1.5-2.2-3.3-2.8-5.3l0-0.1c-1.1-3.2,1.3-6.5,4.6-6.5h3.2
		c2.3,0,4.2,1.6,4.9,3.8c0.1,0.4,0.2,0.7,0.4,1.1c0.6,1.3,1.5,2.4,2.6,3.3c1.1,0.8,2.4,1.4,4,1.8c1.5,0.4,3.3,0.6,5.2,0.6
		c1.7,0,3.2-0.2,4.4-0.5c1.3-0.4,2.3-0.9,3.1-1.5c0.8-0.6,1.4-1.4,1.8-2.3C589.3,226.6,589.5,225.7,589.5,224.6z"/>
	<path fill="#922CCE" d="M654.3,188.2H640v46.6c0,3.6-2.9,6.6-6.6,6.6h0c-3.6,0-6.6-2.9-6.6-6.6v-46.6H613c-2.9,0-5.3-2.4-5.3-5.3v0
		c0-2.9,2.4-5.3,5.3-5.3h41.3c2.9,0,5.3,2.4,5.3,5.3v0C659.6,185.9,657.2,188.2,654.3,188.2z"/>
</g>
<g>
	<g>
		<path fill="#F3F3FF" d="M285.2,285c-24.1-40-73.8-105.2-73.8-122.4c0-17.1,0.4-97.7,0.4-97.7l-54.6,0.1c0,0,0.2,80.4,0.2,97.5
			c0,17.1-49.8,82.3-73.8,122.4c-12.6,21-22.1,45.4,19.3,45.4c15.8,0,147.2,0,163,0C307.3,330.4,297.8,306,285.2,285z"/>
		<path fill="#CADFEF" d="M277.4,285c-24.1-40-73.8-105.2-73.8-122.4c0-17.1,0.4-97.7,0.4-97.7l-54.6,0.1c0,0,0.2,80.4,0.2,97.5
			c0,17.1-49.8,82.3-73.8,122.4c-12.6,21-22.1,45.4,19.3,45.4c15.8,0,147.2,0,163,0C299.5,330.4,290,306,277.4,285z"/>
		<linearGradient id="SVGID_1_" gradientUnits="userSpaceOnUse" x1="176.5991" y1="318.8917" x2="176.5991" y2="214.2694">
			<stop  offset="0" style="stop-color:#570D8F"/>
			<stop  offset="1.316357e-002" style="stop-color:#5A0E92"/>
			<stop  offset="0.1282" style="stop-color:#7213A7"/>
			<stop  offset="0.2577" style="stop-color:#8516B8"/>
			<stop  offset="0.4106" style="stop-color:#9219C3"/>
			<stop  offset="0.607" style="stop-color:#9A1BCA"/>
			<stop  offset="1" style="stop-color:#9C1BCC"/>
		</linearGradient>
		<path fill="url(#SVGID_1_)" d="M220.6,219.5c-28.2,2.9-56.9-5.8-84.7-5.2c-13.8,21.5-32.3,47.4-43.8,66.6
			c-10.6,17.6-18.5,38,16.2,38c13.3,0,123.2,0,136.5,0c34.7,0,26.7-20.5,16.2-38C250.4,263.3,233.9,239.9,220.6,219.5z"/>
		<path opacity="0.2" fill="#231F20" enable-background="new    " d="M173.7,255c0-6.2-5-11.2-11.2-11.2c-6.2,0-11.2,5-11.2,11.2
			c0,6.2,5,11.2,11.2,11.2C168.7,266.2,173.7,261.2,173.7,255z"/>
		<path opacity="0.2" fill="#231F20" enable-background="new    " d="M189.9,170.8c0-2.5-2-4.5-4.5-4.5c-2.5,0-4.5,2-4.5,4.5
			s2,4.5,4.5,4.5C187.8,175.2,189.9,173.2,189.9,170.8z"/>
		<path opacity="0.2" fill="#231F20" enable-background="new    " d="M196.3,102.4c0-4.6-3.7-8.3-8.3-8.3c-4.6,0-8.3,3.7-8.3,8.3
			s3.7,8.3,8.3,8.3C192.6,110.7,196.3,107,196.3,102.4z"/>
		<path opacity="0.2" fill="#231F20" enable-background="new    " d="M178.6,61.2c0-6.5-5.2-11.7-11.7-11.7
			c-6.4,0-11.7,5.2-11.7,11.7s5.2,11.7,11.7,11.7C173.3,72.9,178.6,67.7,178.6,61.2z"/>
		<circle opacity="0.2" fill="#231F20" enable-background="new    " cx="177.1" cy="298.4" r="11.2"/>
		<circle opacity="0.2" fill="#231F20" enable-background="new    " cx="189.7" cy="266.2" r="5.8"/>
		<circle opacity="0.2" fill="#231F20" enable-background="new    " cx="179.5" cy="219.9" r="5.8"/>
	</g>
	<path fill="#CADFEF" stroke="#B8DDF4" stroke-width="0.5" stroke-miterlimit="10" d="M148.3,62.3H213c4.2,0,7.7,3.4,7.7,7.7v0
		c0,4.2-3.4,7.7-7.7,7.7h-64.8c-4.2,0-7.7-3.4-7.7-7.7v0C140.6,65.7,144,62.3,148.3,62.3z"/>
</g>
</svg>
