<?xml version="1.0" encoding="utf-8"?>
<!-- Generator: Adobe Illustrator 19.2.0, SVG Export Plug-In . SVG Version: 6.00 Build 0)  -->
<svg version="1.1" id="Layer_1" xmlns="http://www.w3.org/2000/svg" xmlns:xlink="http://www.w3.org/1999/xlink" x="0px" y="0px"
	 viewBox="0 0 384 640" enable-background="new 0 0 384 640" xml:space="preserve">
<g id="Form">
	<g id="StatusBar">
		<rect fill="#303F9F" width="384" height="21"/>
	</g>
	<g id="ActionBar">
		<rect id="container_1_" y="21" fill="#3F51B5" width="384" height="49"/>
		<text transform="matrix(1 0 0 1 16 52.272)" fill="#FFFFFF" font-family="'Roboto-Medium'" font-size="24px">Katalyst</text>
	</g>
	<g id="TextView">
		<rect id="container" y="70" fill="#FFFFFF" width="384" height="73.5"/>
		<g id="TextField">
			<rect x="15.7" y="99.3" fill="#FFFFFF" width="353.3" height="27"/>
			<text transform="matrix(1 0 0 1 16.3332 120.8333)" fill="#757575" font-family="'Roboto-Regular'" font-size="16px">Name</text>
			<line fill="none" stroke="#FF4081" stroke-miterlimit="10" x1="15.7" y1="126.3" x2="369" y2="126.3"/>
		</g>
		<text transform="matrix(1 0 0 1 16.3333 91.6665)" fill="#757575" font-family="'Roboto-Regular'" font-size="12px">Your Name</text>
	</g>
	<g id="Button">
		<rect x="274.9" y="160" fill="#D6D7D7" width="94" height="32"/>
		<text transform="matrix(1 0 0 1 298.5767 179.5034)" font-family="'Roboto-Medium'" font-size="12px">BUTTON</text>
	</g>
</g>
<g id="Welcome">
	<g id="StatusBar_1_">
		<rect x="404" fill="#303F9F" width="384" height="21"/>
	</g>
	<g id="ActionBar_1_">
		<rect id="container_3_" x="404" y="21" fill="#3F51B5" width="384" height="49"/>
		<text transform="matrix(1 0 0 1 420 52.272)" fill="#FFFFFF" font-family="'Roboto-Medium'" font-size="24px">Katalyst</text>
	</g>
	<g id="Layout">
		<rect id="container_2_" x="404" y="70" fill="#FFFFFF" width="384" height="570"/>
		<text transform="matrix(1 0 0 1 419.4998 100.6665)" fill="#757575" font-family="'Roboto-Regular'" font-size="16px">Hello Catalyst</text>
		<text transform="matrix(1 0 0 1 419.4998 124.6665)" fill="#757575" font-family="'Roboto-Regular'" font-size="16px">Accelerating Android Design</text>
	</g>
</g>
<g id="Final">
	<g id="StatusBar_2_">
		<rect y="660" fill="#303F9F" width="384" height="21"/>
	</g>
	<g id="ActionBar_2_">
		<rect id="container_4_" y="681" fill="#3F51B5" width="384" height="49"/>
		<text transform="matrix(1 0 0 1 16 712.272)" fill="#FFFFFF" font-family="'Roboto-Medium'" font-size="24px">Katalyst</text>
	</g>
	<g id="Image">
		<rect y="730.4" fill="none" width="384" height="119"/>
		<g id="asset-Image">
			<g>
				<g>
					<g>
						<path fill="#91DC5A" d="M171,779.9h-0.1c-1.9,0-3.4,1.5-3.4,3.4v14.9c0,1.9,1.5,3.4,3.4,3.4h0.1c1.9,0,3.4-1.5,3.4-3.4v-14.9
							C174.5,781.4,172.9,779.9,171,779.9z"/>
						<path fill="#91DC5A" d="M176.1,804c0,1.7,1.4,3.1,3.2,3.1h3.4v8.1c0,1.9,1.5,3.4,3.4,3.4h0.1c1.9,0,3.4-1.5,3.4-3.4v-8.1h4.7
							v8.1c0,1.9,1.6,3.4,3.4,3.4h0.1c1.9,0,3.4-1.5,3.4-3.4v-8.1h3.4c1.7,0,3.1-1.4,3.1-3.1v-23.6h-31.8V804H176.1z"/>
						<path fill="#91DC5A" d="M199.9,766.1l2.7-4.1c0.2-0.3,0.1-0.6-0.2-0.8s-0.6-0.1-0.8,0.2l-2.8,4.3c-2.1-0.9-4.4-1.3-6.9-1.3
							s-4.8,0.5-6.9,1.3l-2.8-4.3c-0.2-0.3-0.5-0.3-0.8-0.2c-0.3,0.2-0.3,0.5-0.2,0.8l2.7,4.1c-4.8,2.4-8.1,6.8-8.1,11.9
							c0,0.3,0,0.6,0,0.9H208c0-0.3,0-0.6,0-0.9C208,772.9,204.7,768.5,199.9,766.1z M184.6,773.5c-0.8,0-1.5-0.7-1.5-1.5
							s0.7-1.5,1.5-1.5c0.9,0,1.5,0.7,1.5,1.5S185.5,773.5,184.6,773.5z M199.4,773.5c-0.8,0-1.5-0.7-1.5-1.5s0.7-1.5,1.5-1.5
							c0.9,0,1.5,0.7,1.5,1.5S200.2,773.5,199.4,773.5z"/>
						<path fill="#91DC5A" d="M213.1,779.9H213c-1.9,0-3.4,1.5-3.4,3.4v14.9c0,1.9,1.5,3.4,3.4,3.4h0.1c1.9,0,3.4-1.5,3.4-3.4v-14.9
							C216.5,781.4,215,779.9,213.1,779.9z"/>
					</g>
				</g>
			</g>
			<circle id="Back" fill="none" stroke="#91DC5A" stroke-miterlimit="10" cx="192" cy="789.9" r="40.3"/>
		</g>
	</g>
	<g id="TExtView">
		<rect x="63" y="863.8" fill="none" width="256" height="20.3"/>
		<text transform="matrix(1 0 0 1 102.7925 874.3413)" fill="#757575" font-family="'Roboto-Regular'" font-size="14px">Accelerating Android Design</text>
	</g>
</g>
</svg>
