<?xml version="1.0" encoding="utf-8"?>
<!-- Generator: Adobe Illustrator 19.2.0, SVG Export Plug-In . SVG Version: 6.00 Build 0)  -->
<svg version="1.0" id="Layer_1" xmlns="http://www.w3.org/2000/svg" xmlns:xlink="http://www.w3.org/1999/xlink" x="0px" y="0px"
	 width="384px" height="640px" viewBox="0 0 384 640" enable-background="new 0 0 384 640" xml:space="preserve">
<g id="StatusBar">
	<rect fill="#303F9F" width="384" height="21"/>
</g>
<g id="ActionBar">
	<rect id="container_1_" y="21" fill="#3F51B5" width="384" height="49"/>
	<text transform="matrix(1 0 0 1 16 52.272)" fill="#FFFFFF" font-family="'Roboto-Medium'" font-size="24px">Katalyst</text>
</g>
<g id="Image">
	<rect y="70.4" fill="none" width="384" height="119"/>
	<g id="asset-Image">
		<rect id="asset-container" x="149.9" y="86.1" fill="#FFFFFF" width="88" height="88"/>
		<g id="asset">
			<g>
				<path fill="#91DC5A" d="M172.9,120.1h-0.1c-1.9,0-3.4,1.5-3.4,3.4v14.9c0,1.9,1.5,3.4,3.4,3.4h0.1c1.9,0,3.4-1.5,3.4-3.4v-14.9
					C176.4,121.6,174.8,120.1,172.9,120.1z"/>
				<path fill="#91DC5A" d="M178,144.2c0,1.7,1.4,3.1,3.2,3.1h3.4v8.1c0,1.9,1.5,3.4,3.4,3.4h0.1c1.9,0,3.4-1.5,3.4-3.4v-8.1h4.7
					v8.1c0,1.9,1.6,3.4,3.4,3.4h0.1c1.9,0,3.4-1.5,3.4-3.4v-8.1h3.4c1.7,0,3.1-1.4,3.1-3.1v-23.6h-31.8v23.6H178z"/>
				<path fill="#91DC5A" d="M201.8,106.3l2.7-4.1c0.2-0.3,0.1-0.6-0.2-0.8c-0.3-0.2-0.6-0.1-0.8,0.2l-2.8,4.3
					c-2.1-0.9-4.4-1.3-6.9-1.3s-4.8,0.5-6.9,1.3l-2.8-4.3c-0.2-0.3-0.5-0.3-0.8-0.2c-0.3,0.2-0.3,0.5-0.2,0.8l2.7,4.1
					c-4.8,2.4-8.1,6.8-8.1,11.9c0,0.3,0,0.6,0,0.9h32.2c0-0.3,0-0.6,0-0.9C209.9,113.1,206.5,108.7,201.8,106.3z M186.5,113.7
					c-0.8,0-1.5-0.7-1.5-1.5s0.7-1.5,1.5-1.5c0.9,0,1.5,0.7,1.5,1.5S187.4,113.7,186.5,113.7z M201.3,113.7c-0.8,0-1.5-0.7-1.5-1.5
					s0.7-1.5,1.5-1.5c0.9,0,1.5,0.7,1.5,1.5S202,113.7,201.3,113.7z"/>
				<path fill="#91DC5A" d="M215,120.1h-0.1c-1.9,0-3.4,1.5-3.4,3.4v14.9c0,1.9,1.5,3.4,3.4,3.4h0.1c1.9,0,3.4-1.5,3.4-3.4v-14.9
					C218.4,121.6,216.9,120.1,215,120.1z"/>
			</g>
			<circle id="Back" fill="none" stroke="#91DC5A" stroke-miterlimit="10" cx="193.9" cy="130.1" r="40.3"/>
		</g>
	</g>
</g>
<g id="TExtView">
	<rect x="63" y="203.8" fill="none" width="256" height="20.3"/>
	<text transform="matrix(1 0 0 1 102.7925 214.3413)" fill="#757575" font-family="'Roboto-Regular'" font-size="14px">Accelerating Android Design</text>
</g>
</svg>
