<?xml version="1.0" encoding="utf-8"?>
<!-- Generator: Adobe Illustrator 19.2.0, SVG Export Plug-In . SVG Version: 6.00 Build 0)  -->
<svg version="1.1" xmlns="http://www.w3.org/2000/svg" xmlns:xlink="http://www.w3.org/1999/xlink" x="0px" y="0px"
	 viewBox="0 0 384 640" enable-background="new 0 0 384 640" xml:space="preserve">
<g id="StatusBar">
	<rect fill="#303F9F" width="384" height="21"/>
</g>
<g id="ActionBar">
	<rect id="container_1_" y="21" fill="#3F51B5" width="384" height="49"/>
	<text transform="matrix(1 0 0 1 16 52.272)" fill="#FFFFFF" font-family="'Roboto-Medium'" font-size="24px">Katalyst</text>
</g>
<g id="Image">
	<rect y="70.4" fill="none" width="384" height="119"/>
	<g id="asset-Image">
		<g>
			<g>
				<g>
					<path fill="#91DC5A" d="M171,119.9h-0.1c-1.9,0-3.4,1.5-3.4,3.4v14.9c0,1.9,1.5,3.4,3.4,3.4h0.1c1.9,0,3.4-1.5,3.4-3.4v-14.9
						C174.5,121.4,172.9,119.9,171,119.9z"/>
					<path fill="#91DC5A" d="M176.1,144c0,1.7,1.4,3.1,3.2,3.1h3.4v8.1c0,1.9,1.5,3.4,3.4,3.4h0.1c1.9,0,3.4-1.5,3.4-3.4v-8.1h4.7
						v8.1c0,1.9,1.6,3.4,3.4,3.4h0.1c1.9,0,3.4-1.5,3.4-3.4v-8.1h3.4c1.7,0,3.1-1.4,3.1-3.1v-23.6h-31.8V144z"/>
					<path fill="#91DC5A" d="M199.9,106.1l2.7-4.1c0.2-0.3,0.1-0.6-0.2-0.8c-0.3-0.2-0.6-0.1-0.8,0.2l-2.8,4.3
						c-2.1-0.9-4.4-1.3-6.9-1.3c-2.5,0-4.8,0.5-6.9,1.3l-2.8-4.3c-0.2-0.3-0.5-0.3-0.8-0.2c-0.3,0.2-0.3,0.5-0.2,0.8l2.7,4.1
						c-4.8,2.4-8.1,6.8-8.1,11.9c0,0.3,0,0.6,0,0.9H208c0-0.3,0-0.6,0-0.9C208,112.9,204.7,108.5,199.9,106.1z M184.6,113.5
						c-0.8,0-1.5-0.7-1.5-1.5s0.7-1.5,1.5-1.5c0.9,0,1.5,0.7,1.5,1.5S185.5,113.5,184.6,113.5z M199.4,113.5c-0.8,0-1.5-0.7-1.5-1.5
						s0.7-1.5,1.5-1.5c0.9,0,1.5,0.7,1.5,1.5C200.9,112.8,200.2,113.5,199.4,113.5z"/>
					<path fill="#91DC5A" d="M213.1,119.9H213c-1.9,0-3.4,1.5-3.4,3.4v14.9c0,1.9,1.5,3.4,3.4,3.4h0.1c1.9,0,3.4-1.5,3.4-3.4v-14.9
						C216.5,121.4,215,119.9,213.1,119.9z"/>
				</g>
			</g>
		</g>
		<circle id="Back" fill="none" stroke="#91DC5A" stroke-miterlimit="10" cx="192" cy="129.9" r="40.3"/>
	</g>
</g>
<g id="TExtView">
	<rect x="63" y="203.8" fill="none" width="256" height="20.3"/>
	<text transform="matrix(1 0 0 1 102.7925 214.3413)" fill="#757575" font-family="'Roboto-Regular'" font-size="14px">Accelerating Android Design</text>
</g>
</svg>
